# xmcd
#
# Track frame offsets: 
#        182
#        38082
#        61472
#        96527
#        138625
#
# Disc length: 2622 seconds
#
# Revision: 3
# Processed by: cddbd v1.5.2PL0 Copyright (c) Steve Scherf et al.
# Submitted via: ExactAudioCopy v0.90b4
#
DISCID=470a3c05
DTITLE=Lito Vitale Cuarteto - Ese Amigo Del Alma
DYEAR=1988
DGENRE=Progressive Rock
TTITLE0=Recuerdos En Mi Bemol
TTITLE1=Estar Entre Nosotros
TTITLE2=La Vida Es Un Tango
TTITLE3=Estar Vivo Hoy
TTITLE4=Ese Amigo Del Alma
EXTD=
EXTT0=Ese Amigo del Alma
EXTT1=Ese Amigo del Alma
EXTT2=Ese Amigo del Alma
EXTT3=Ese Amigo del Alma
EXTT4=Ese Amigo del Alma
PLAYORDER=
